HIERARCHY
ROOT Hips
{
	OFFSET 0.000000 0.000000 0.000000
	CHANNELS 6 Xposition Yposition Zposition Zrotation Yrotation Xrotation 
	JOINT LHipJoint
	{
		OFFSET 0.000000 0.000000 0.000000
		CHANNELS 3 Zrotation Yrotation Xrotation
		JOINT LeftUpLeg
		{
			OFFSET 1.363060 -1.794630 0.839290
			CHANNELS 3 Zrotation Yrotation Xrotation
			JOINT LeftLeg
			{
				OFFSET 2.448110 -6.726130 0.000000
				CHANNELS 3 Zrotation Yrotation Xrotation
				JOINT LeftFoot
				{
					OFFSET 2.562200 -7.039590 0.000000
					CHANNELS 3 Zrotation Yrotation Xrotation
					JOINT LeftToeBase
					{
						OFFSET 0.157640 -0.433110 2.322550
						CHANNELS 3 Zrotation Yrotation Xrotation
						End Site
						{
							OFFSET 0.000000 0.000000 0.000000
						}
					}
				}
			}
		}
	}
	JOINT RHipJoint
	{
		OFFSET 0.000000 0.000000 0.000000
		CHANNELS 3 Zrotation Yrotation Xrotation
		JOINT RightUpLeg
		{
			OFFSET -1.305520 -1.794630 0.839290
			CHANNELS 3 Zrotation Yrotation Xrotation
			JOINT RightLeg
			{
				OFFSET -2.542530 -6.985550 0.000000
				CHANNELS 3 Zrotation Yrotation Xrotation
				JOINT RightFoot
				{
					OFFSET -2.568260 -7.056230 0.000000
					CHANNELS 3 Zrotation Yrotation Xrotation
					JOINT RightToeBase
					{
						OFFSET -0.164730 -0.452590 2.363150
						CHANNELS 3 Zrotation Yrotation Xrotation
						End Site
						{
							OFFSET 0.000000 0.000000 0.000000
						}
					}
				}
			}
		}
	}
}
MOTION
Frames: 33
Frame Time: 0.008333
2.312730 15.932084 2.183894 13.571898 -78.695457 29.044534 -8.413480 -0.899830 3.243614 -12.998092 -16.477919 -69.534657 -1.746979 1.930363 45.332283 2.216654 5.086525 -18.776274 -1.095300 0.000000 -27.850100 8.501394 3.143495 0.311935 5.715711 -3.460384 -85.506205 -1.977933 -6.865329 75.268695 -3.733323 -18.462972 12.595066 -7.322299 0.000000 -69.314700
2.310159 15.978631 2.206154 11.571846 -78.483837 30.154396 -8.505816 -0.957497 3.183420 -12.634942 -16.188226 -68.299217 -1.683993 1.855696 44.944747 2.231662 5.311888 -18.683605 -1.113500 0.000000 -28.015700 8.400802 3.273108 0.218361 5.840889 -3.574022 -85.946584 -2.123110 -6.899276 76.606735 -3.628765 -18.316935 16.214486 -8.114000 -0.000000 -68.950700
2.308183 16.025222 2.227694 9.604302 -78.341339 31.286166 -8.601415 -1.016350 3.117421 -12.255737 -15.881657 -67.119209 -1.623220 1.784078 44.535595 2.251641 5.560919 -18.581457 -1.132300 0.000001 -28.200600 8.298068 3.391056 0.159131 5.914577 -3.595747 -86.465392 -2.236256 -6.927426 77.775874 -3.480504 -17.734334 19.588655 -8.580200 -0.000001 -68.570400
2.306813 16.071650 2.248379 7.645389 -78.272352 32.469821 -8.699192 -1.077077 3.043829 -11.867085 -15.551824 -66.002290 -1.565721 1.716092 44.107865 2.275370 5.826564 -18.470493 -1.150800 0.000000 -28.387000 8.196167 3.495330 0.135058 5.934915 -3.517830 -87.070232 -2.326147 -6.953448 78.772043 -3.291408 -16.693594 22.611397 -8.644900 -0.000000 -68.235100
2.306063 16.117639 2.268203 5.664458 -78.278677 33.740831 -8.798359 -1.140696 2.960700 -11.473904 -15.192415 -64.953838 -1.512187 1.652106 43.665005 2.301687 6.102289 -18.351269 -1.168200 0.000001 -28.568400 8.096160 3.585130 0.145706 5.903372 -3.335254 -87.769217 -2.401227 -6.979945 79.596004 -3.068367 -15.220199 25.202057 -8.284600 -0.000000 -68.026100
2.306107 16.163068 2.287276 3.629104 -78.358824 35.133015 -8.898193 -1.208277 2.866447 -11.080275 -14.799307 -63.976224 -1.462987 1.592204 43.209325 2.329579 6.382821 -18.223292 -1.183600 0.000001 -28.761500 7.997358 3.660794 0.189066 5.824561 -3.049159 -88.570199 -2.467936 -7.008813 80.252586 -2.820639 -13.386775 27.307376 -7.533100 0.000000 -67.946600
2.306947 16.207715 2.305767 1.508186 -78.509916 36.679862 -8.998094 -1.280300 2.760267 -10.690597 -14.369014 -63.072112 -1.418951 1.536514 42.743088 2.357917 6.660773 -18.089680 -1.196600 0.000000 -28.920900 7.897297 3.723423 0.263425 5.705001 -2.663124 -89.481762 -2.529567 -7.040453 80.747248 -2.561112 -11.325749 28.907778 -6.488800 -0.000001 -68.099100
2.308741 16.251439 2.323921 -0.730039 -78.724746 38.412403 -9.097517 -1.357531 2.641764 -10.307627 -13.902126 -62.240991 -1.380141 1.484822 42.267645 2.385962 6.932302 -17.950119 -1.206700 0.000000 -29.051800 7.792703 3.774289 0.365520 5.552698 -2.186097 -90.510155 -2.586677 -7.074783 81.087558 -2.302615 -9.196233 30.016059 -5.285000 -0.000000 -68.479000
2.311563 16.294041 2.342013 -3.114558 -78.994526 40.360188 -9.196002 -1.440286 2.511678 -9.933687 -13.401658 -61.483996 -1.346600 1.436944 41.784703 2.413195 7.194084 -17.805212 -1.213400 -0.000000 -29.149999 7.679941 3.814281 0.492494 5.375893 -1.628652 -91.661151 -2.637508 -7.110853 81.280083 -2.058373 -7.171427 30.678497 -4.071700 -0.000000 -69.097800
2.315304 16.335269 2.360276 -5.666671 -79.308463 42.546636 -9.293084 -1.528400 2.371640 -9.571654 -12.872969 -60.802707 -1.318477 1.392677 41.296203 2.439176 7.442773 -17.656391 -1.216500 0.000000 -29.201800 7.556067 3.843430 0.641924 5.181322 -1.003017 -92.939387 -2.679279 -7.147508 81.330435 -1.840202 -5.408054 30.960881 -2.984601 -0.000000 -69.907700
2.320133 16.374891 2.379055 -8.412645 -79.654335 44.997951 -9.388611 -1.622403 2.224208 -9.219737 -12.325774 -60.200214 -1.294807 1.351635 40.804957 2.464411 7.680346 -17.503785 -1.216200 0.000000 -29.227100 7.418226 3.860581 0.811107 4.975515 -0.321288 -94.344455 -2.707603 -7.182815 81.234945 -1.658262 -4.028948 30.954648 -2.128101 -0.000000 -70.983700
2.325902 16.412605 2.398361 -11.356721 -80.020438 47.720811 -9.482018 -1.721698 2.071954 -8.882373 -11.768151 -59.681348 -1.275851 1.313927 40.315058 2.488675 7.904109 -17.349356 -1.212399 0.000000 -29.204600 7.266284 3.863625 0.998774 4.758979 0.403566 -95.876071 -2.719947 -7.216060 80.993861 -1.518245 -3.099702 30.726731 -1.556800 -0.000000 -72.158100
2.332553 16.448120 2.418389 -14.505643 -80.394655 50.724661 -9.573162 -1.826416 1.918108 -8.559075 -11.211135 -59.252044 -1.260811 1.279405 39.831659 2.512604 8.116144 -17.194085 -1.205400 0.000000 -29.146401 7.100959 3.849011 1.204079 4.530521 1.160259 -97.528131 -2.712816 -7.246173 80.596248 -1.422582 -2.634721 30.346136 -1.283700 -0.000000 -73.366400
2.340063 16.481113 2.439121 -17.852650 -80.766022 54.004656 -9.661587 -1.936681 1.765400 -8.250849 -10.665658 -58.918763 -1.249007 1.248130 39.361699 2.536956 8.318938 -17.039868 -1.195700 -0.000000 -29.056200 6.924938 3.812565 1.426999 4.284348 1.937736 -99.289942 -2.682815 -7.272380 80.025432 -1.369634 -2.598151 29.864719 -1.284300 -0.000001 -74.532300
2.348291 16.511267 2.460565 -21.384390 -81.124787 57.550522 -9.747022 -2.052681 1.616368 -7.957503 -10.141499 -58.687793 -1.239654 1.220167 38.912346 2.562556 8.515473 -16.888297 -1.183700 0.000000 -28.943100 6.742771 3.749322 1.668220 4.012854 2.725319 -101.146946 -2.626637 -7.294531 79.260670 -1.352737 -2.906823 29.313810 -1.503099 -0.000000 -75.484600
2.357241 16.538287 2.482502 -25.069443 -81.463166 61.330826 -9.828250 -2.174609 1.471888 -7.681265 -9.647845 -58.563333 -1.232153 1.195790 38.492563 2.590180 8.708680 -16.741680 -1.170101 0.000000 -28.813200 6.561186 3.655072 1.928705 3.704578 3.511194 -103.081354 -2.541020 -7.312875 78.279178 -1.360893 -3.443891 28.712227 -1.864100 -0.000000 -76.073400
2.366909 16.561930 2.505048 -28.902171 -81.774191 65.341088 -9.905755 -2.303817 1.333207 -7.416340 -9.190928 -58.550884 -1.225068 1.175216 38.111074 2.621114 8.903815 -16.603466 -1.155999 0.000000 -28.670901 6.386178 3.524036 2.210533 3.353445 4.289186 -105.069784 -2.420350 -7.326212 77.042404 -1.380789 -4.083192 28.096932 -2.289900 -0.000001 -76.284600
2.377242 16.581945 2.528161 -32.861573 -82.051960 69.559839 -9.979354 -2.441486 1.200195 -7.159129 -8.775335 -58.652843 -1.217330 1.158738 37.776688 2.656370 9.104803 -16.477944 -1.142300 -0.000000 -28.521000 6.225694 3.351272 2.516127 2.953571 5.051655 -107.089104 -2.259578 -7.334196 75.515618 -1.395962 -4.695428 27.487206 -2.703900 0.000001 -76.246000
2.388311 16.598151 2.551387 -36.888648 -82.293490 73.923011 -10.046774 -2.587720 1.070008 -6.912156 -8.404218 -58.865358 -1.208618 1.146981 37.498724 2.696088 9.312824 -16.366875 -1.129801 0.000000 -28.365600 6.090657 3.135447 2.846323 2.500197 5.784664 -109.117740 -2.055239 -7.338228 73.681661 -1.386230 -5.145444 26.888363 -3.028100 0.000000 -75.655600
2.400122 16.610396 2.574784 -40.962986 -82.494780 78.407795 -10.107815 -2.744142 0.941010 -6.668328 -8.078099 -59.187927 -1.197707 1.140267 37.284773 2.741165 9.531596 -16.275017 -1.119699 -0.000000 -28.204500 5.989420 2.873250 3.204285 1.998949 6.484921 -111.132425 -1.800112 -7.337026 71.504842 -1.335894 -5.351191 26.330390 -3.219799 0.000000 -74.735001
2.412510 16.618519 2.598194 -45.044865 -82.653703 82.973879 -10.161200 -2.911436 0.810735 -6.423263 -7.796884 -59.617274 -1.183817 1.138801 37.140714 2.792120 9.763471 -16.205691 -1.113000 0.000000 -28.036901 5.931526 2.563364 3.593840 1.459447 7.149592 -113.113364 -1.486396 -7.329338 68.957800 -1.231680 -5.263607 25.828219 -3.256000 0.000000 -73.633299
2.425516 16.622459 2.621525 -49.092785 -82.768436 87.576515 -10.205087 -3.090252 0.676178 -6.172374 -7.559693 -60.150358 -1.166238 1.142852 37.071873 2.849324 10.010100 -16.162218 -1.110800 -0.000000 -27.859800 5.926030 2.206236 4.019861 0.896334 7.779734 -115.042160 -1.104030 -7.312023 66.013372 -1.065579 -4.876906 25.386476 -3.137500 0.000000 -72.559599
2.439039 16.622072 2.644648 -53.061506 -82.838253 92.169452 -10.237121 -3.280501 0.534318 -5.912116 -7.365204 -60.784684 -1.144521 1.152550 37.081591 2.913018 10.272488 -16.147057 -1.114000 0.000000 -27.671200 5.981434 1.804271 4.489046 0.327708 8.380893 -116.901523 -0.640143 -7.278802 62.644298 -0.835225 -4.221825 24.991264 -2.884300 -0.000001 -71.741300
2.452875 16.617299 2.667358 -56.898529 -82.864705 96.701646 -10.254333 -3.480981 0.382046 -5.640763 -7.212683 -61.517487 -1.118573 1.167914 37.171455 2.983167 10.550503 -16.161716 -1.123200 -0.000000 -27.469401 6.105045 1.362989 5.010190 -0.228256 8.961396 -118.672161 -0.078339 -7.217608 58.819030 -0.543915 -3.356416 24.608210 -2.530200 0.000000 -71.391900
2.466891 16.608031 2.689510 -60.556265 -82.848708 101.125749 -10.254325 -3.690365 0.216452 -5.356302 -7.100186 -62.347628 -1.088358 1.189072 37.342740 3.059432 10.842443 -16.207815 -1.139100 0.000000 -27.254800 6.300367 0.891509 5.592610 -0.750707 9.531946 -120.329305 0.601556 -7.107952 54.503495 -0.198915 -2.348407 24.170198 -2.113801 0.000000 -71.586100
2.480946 16.594215 2.710758 -63.972314 -82.795174 105.379669 -10.233867 -3.905836 0.033547 -5.061240 -7.027575 -63.270230 -1.054381 1.216050 37.594893 3.140890 11.144803 -16.285491 -1.162200 0.000000 -27.029400 6.564934 0.406208 6.246563 -1.230502 10.099027 -121.835197 1.420995 -6.912446 49.645804 0.185037 -1.282134 23.617496 -1.684900 -0.000001 -72.523400
2.494859 16.575809 2.730958 -67.090951 -82.706616 109.403186 -10.192145 -4.124893 -0.169261 -4.755602 -6.991122 -64.279280 -1.016916 1.249132 37.928749 3.225797 11.450523 -16.395663 -1.192801 -0.000000 -26.797900 6.883980 -0.069883 6.976716 -1.657272 10.663296 -123.134052 2.397265 -6.575439 44.198302 0.590405 -0.222631 22.854015 -1.282200 -0.000000 -73.942400
2.508531 16.552877 2.749714 -69.833148 -82.590830 113.105281 -10.128665 -4.343132 -0.394084 -4.445621 -6.989638 -65.358467 -0.976661 1.288503 38.344410 3.311617 11.750263 -16.539129 -1.231500 -0.000000 -26.567000 7.225932 -0.502129 7.777941 -2.042852 11.203122 -124.143594 3.525999 -6.014783 38.110871 0.987657 0.753426 21.828690 -0.948800 0.000000 -75.825100
2.530001 16.535601 2.745252 -77.369637 -82.364628 121.304321 -9.693745 -4.382403 -1.025819 -4.815544 -6.282815 -65.855976 -1.075177 1.368456 38.709878 3.381497 11.958893 -16.911811 -1.340800 0.000000 -26.073301 7.707320 -0.639303 8.635304 -2.807464 12.197906 -124.378588 4.569461 -5.016209 31.198244 1.309600 1.583026 20.738226 -0.678900 0.000000 -77.943300
2.543420 16.504343 2.760348 -79.092704 -82.182759 123.985371 -9.591909 -4.566983 -1.277645 -4.523063 -6.344859 -66.983054 -1.031122 1.426618 39.302870 3.459008 12.209504 -17.136054 -1.400700 0.000000 -25.855300 7.920114 -0.838783 9.450452 -3.164991 12.518529 -124.494758 5.765842 -3.782303 23.962441 1.573615 2.202660 19.160488 -0.550399 -0.000000 -79.638400
2.556717 16.469180 2.773239 -80.248704 -82.029246 126.014564 -9.489189 -4.733914 -1.516699 -4.265176 -6.439973 -68.069363 -0.986375 1.492884 39.983498 3.527360 12.418155 -17.400460 -1.470999 -0.000000 -25.656900 7.993873 -0.885501 10.156638 -3.547652 12.606055 -124.097075 6.777628 -2.221240 16.509487 1.714687 2.576490 17.407806 -0.522100 -0.000000 -80.919500
2.569872 16.430489 2.783952 -80.900928 -81.917707 127.405381 -9.394724 -4.877702 -1.721573 -4.055515 -6.562328 -69.082293 -0.942443 1.568045 40.749467 3.584795 12.578084 -17.704950 -1.551300 -0.000000 -25.480899 7.924681 -0.787647 10.673927 -3.938795 12.437063 -123.272212 7.464397 -0.504717 9.295808 1.731818 2.725964 15.551660 -0.559199 -0.000000 -81.203299
2.583128 16.388697 2.792196 -81.171257 -81.863569 128.254632 -9.311003 -4.993361 -1.882696 -3.913838 -6.712224 -70.004634 -0.902008 1.651881 41.589956 3.631634 12.690888 -18.046287 -1.640799 0.000000 -25.324400 7.756953 -0.585200 10.970064 -4.296227 12.063650 -122.227445 7.796704 1.129914 2.821517 1.660130 2.731357 13.674207 -0.614600 0.000000 -80.689201
